# xmcd CD database file
#
# Track frame offsets:
#	150
#	15286
#	30521
#	95891
#	113589
#	153189
#	168447
#	201155
#
# Disc length: 2894 seconds
#
# Revision: 0
# Processed by: cddbd v1.5.1PL0 Copyright (c) Steve Scherf et al.
# Submitted via: CDex 1.50
#
DISCID=550b4c08
DTITLE=Calawahake - Passionate Persuasion
DYEAR=2004
DGENRE=New Age
TTITLE0=Dancing Water
TTITLE1=Ephemeral Essence
TTITLE2=Liquid Reiki
TTITLE3=Moonlight on the Desert
TTITLE4=The Nexus
TTITLE5=Passion and Persuasion
TTITLE6=Storm's End
TTITLE7=Continuity
EXTD=YEAR: 2004
EXTT0=
EXTT1=
EXTT2=
EXTT3=
EXTT4=
EXTT5=
EXTT6=
EXTT7=
PLAYORDER=
